<svg width="252" height="249" viewBox="0 0 252 249" fill="none" xmlns="http://www.w3.org/2000/svg">
<g clip-path="url(#clip0_241_3048)">
<path d="M179.206 13.2707C177.949 12.6085 176.308 13.0411 175.548 14.2328L172.662 18.7538L183.179 24.2194C184.433 24.8813 186.074 24.4468 186.834 23.2552L189.719 18.7353L179.206 13.2707ZM185.165 22.3776C184.961 22.6971 184.524 22.8128 184.189 22.6365L175.342 18.0504L177.216 15.1133C177.421 14.7927 177.857 14.6781 178.195 14.8558L187.039 19.4406L185.165 22.3776Z" fill="#1D1D1D"/>
<path d="M170.961 8.92638L166.695 15.611L168.38 16.4993L171.697 11.3023L173.346 12.1717L170.03 17.3676L171.715 18.257L175.982 11.5724L170.961 8.92638Z" fill="#1D1D1D"/>
</g>
<g clip-path="url(#clip1_241_3048)">
<path d="M192.085 39.3234C190.827 38.6612 189.186 39.0939 188.426 40.2855L185.54 44.8066L196.057 50.2722C197.312 50.934 198.952 50.4996 199.712 49.3079L202.597 44.788L192.085 39.3234ZM198.043 48.4304C197.839 48.7499 197.403 48.8656 197.067 48.6893L188.22 44.1031L190.095 41.166C190.299 40.8454 190.735 40.7308 191.073 40.9086L199.918 45.4933L198.043 48.4304Z" fill="#1D1D1D"/>
<path d="M183.839 34.9791L179.573 41.6637L181.259 42.552L184.576 37.355L186.225 38.2245L182.909 43.4204L184.594 44.3098L188.86 37.6251L183.839 34.9791Z" fill="#1D1D1D"/>
</g>
<g clip-path="url(#clip2_241_3048)">
<path d="M228.647 54.6677C227.962 53.4224 226.354 52.8799 225.063 53.4558L220.165 55.6404L225.933 65.9941C226.615 67.2375 228.224 67.7782 229.515 67.2024L234.412 65.0183L228.647 54.6677ZM228.605 65.5507C228.259 65.7051 227.831 65.5611 227.648 65.2292L222.789 56.529L225.971 55.1098C226.318 54.9548 226.745 55.0993 226.929 55.4337L231.787 64.1315L228.605 65.5507Z" fill="#1D1D1D"/>
<path d="M224.157 46.5004L216.914 49.7304L217.832 51.4003L223.463 48.8891L224.361 50.523L218.731 53.0337L219.648 54.7042L226.891 51.4741L224.157 46.5004Z" fill="#1D1D1D"/>
</g>
<g clip-path="url(#clip3_241_3048)">
<path d="M225.052 83.5007C224.367 82.2554 222.759 81.7129 221.468 82.2888L216.57 84.4734L222.338 94.8271C223.02 96.0705 224.629 96.6112 225.92 96.0354L230.817 93.8513L225.052 83.5007ZM225.01 94.3837C224.664 94.5381 224.236 94.3941 224.053 94.0622L219.194 85.362L222.376 83.9428C222.723 83.7878 223.15 83.9323 223.334 84.2667L228.192 92.9645L225.01 94.3837Z" fill="#1D1D1D"/>
<path d="M220.562 75.3334L213.319 78.5634L214.237 80.2334L219.868 77.7221L220.766 79.356L215.136 81.8667L216.053 83.5372L223.295 80.3071L220.562 75.3334Z" fill="#1D1D1D"/>
</g>
<g clip-path="url(#clip4_241_3048)">
<path d="M250.744 110.446C250.657 109.027 249.435 107.849 248.022 107.818L242.66 107.698L243.447 119.524C243.532 120.94 244.755 122.116 246.168 122.148L251.529 122.267L250.744 110.446ZM246.052 120.266C245.673 120.257 245.348 119.944 245.324 119.566L244.652 109.623L248.136 109.701C248.516 109.71 248.84 110.023 248.864 110.404L249.535 120.343L246.052 120.266Z" fill="#1D1D1D"/>
<path d="M250.177 101.143L242.249 100.966L242.365 102.868L248.529 103.006L248.641 104.866L242.479 104.729L242.593 106.631L250.521 106.808L250.177 101.143Z" fill="#1D1D1D"/>
</g>
<g clip-path="url(#clip5_241_3048)">
<path d="M235.164 134.973C235.078 133.554 233.856 132.376 232.443 132.345L227.081 132.225L227.867 144.051C227.953 145.467 229.176 146.643 230.589 146.675L235.95 146.795L235.164 134.973ZM230.473 144.793C230.094 144.784 229.768 144.471 229.745 144.093L229.073 134.15L232.556 134.228C232.937 134.237 233.261 134.55 233.284 134.931L233.956 144.87L230.473 144.793Z" fill="#1D1D1D"/>
<path d="M234.598 125.67L226.67 125.493L226.786 127.395L232.949 127.533L233.062 129.393L226.9 129.256L227.014 131.158L234.942 131.335L234.598 125.67Z" fill="#1D1D1D"/>
</g>
<g clip-path="url(#clip6_241_3048)">
<path d="M239.363 173.071C239.903 171.757 239.318 170.164 238.059 169.52L233.286 167.075L228.839 178.061C228.298 179.372 228.886 180.964 230.144 181.609L234.917 184.053L239.363 173.071ZM230.86 179.864C230.523 179.691 230.366 179.267 230.51 178.917L234.24 169.676L237.341 171.264C237.679 171.438 237.834 171.861 237.689 172.214L233.961 181.453L230.86 179.864Z" fill="#1D1D1D"/>
<path d="M242.909 164.452L235.851 160.837L235.126 162.599L240.613 165.41L239.903 167.134L234.417 164.324L233.691 166.085L240.749 169.701L242.909 164.452Z" fill="#1D1D1D"/>
</g>
<g clip-path="url(#clip7_241_3048)">
<path d="M214.65 188.354C215.191 187.039 214.605 185.447 213.347 184.802L208.573 182.357L204.126 193.343C203.586 194.655 204.173 196.247 205.431 196.891L210.204 199.336L214.65 188.354ZM206.147 195.146C205.81 194.974 205.653 194.55 205.797 194.199L209.527 184.958L212.628 186.547C212.966 186.72 213.122 187.143 212.977 187.497L209.248 196.735L206.147 195.146Z" fill="#1D1D1D"/>
<path d="M218.196 179.735L211.138 176.119L210.413 177.882L215.9 180.692L215.19 182.416L209.704 179.606L208.978 181.368L216.036 184.983L218.196 179.735Z" fill="#1D1D1D"/>
</g>
<g clip-path="url(#clip8_241_3048)">
<path d="M200.559 223.799C201.671 222.914 201.935 221.238 201.15 220.062L198.171 215.602L188.937 223.032C187.827 223.914 187.565 225.591 188.35 226.766L191.327 231.225L200.559 223.799ZM189.824 225.591C189.614 225.276 189.684 224.829 189.98 224.593L197.738 218.338L199.672 221.236C199.884 221.552 199.813 221.998 199.515 222.235L191.759 228.489L189.824 225.591Z" fill="#1D1D1D"/>
<path d="M207.853 217.998L203.449 211.403L201.958 212.589L205.382 217.716L203.922 218.876L200.499 213.75L199.007 214.935L203.411 221.53L207.853 217.998Z" fill="#1D1D1D"/>
</g>
<g clip-path="url(#clip9_241_3048)">
<path d="M171.532 225.112C172.644 224.227 172.908 222.551 172.123 221.375L169.145 216.915L159.91 224.345C158.8 225.227 158.538 226.904 159.323 228.079L162.3 232.538L171.532 225.112ZM160.798 226.904C160.587 226.589 160.657 226.142 160.953 225.906L168.711 219.651L170.646 222.549C170.857 222.865 170.786 223.31 170.488 223.548L162.733 229.802L160.798 226.904Z" fill="#1D1D1D"/>
<path d="M178.826 219.311L174.422 212.716L172.931 213.902L176.355 219.029L174.895 220.189L171.472 215.063L169.98 216.248L174.384 222.843L178.826 219.311Z" fill="#1D1D1D"/>
</g>
<g clip-path="url(#clip10_241_3048)">
<path d="M140.815 243.454C142.21 243.182 143.218 241.817 143.064 240.412L142.481 235.08L130.86 237.408C129.468 237.678 128.461 239.045 128.615 240.45L129.198 245.78L140.815 243.454ZM130.466 240.088C130.424 239.711 130.692 239.348 131.064 239.275L140.833 237.307L141.212 240.771C141.253 241.149 140.985 241.511 140.611 241.585L130.845 243.552L130.466 240.088Z" fill="#1D1D1D"/>
<path d="M149.964 241.674L149.101 233.791L147.231 234.155L147.901 240.284L146.071 240.639L145.401 234.512L143.53 234.874L144.393 242.757L149.964 241.674Z" fill="#1D1D1D"/>
</g>
<g clip-path="url(#clip11_241_3048)">
<path d="M114.46 231.22C115.855 230.948 116.863 229.583 116.709 228.178L116.126 222.846L104.505 225.174C103.112 225.444 102.106 226.811 102.26 228.216L102.843 233.546L114.46 231.22ZM104.11 227.854C104.069 227.478 104.337 227.114 104.709 227.041L114.478 225.073L114.857 228.537C114.898 228.915 114.63 229.278 114.255 229.351L104.489 231.318L104.11 227.854Z" fill="#1D1D1D"/>
<path d="M123.608 229.44L122.746 221.557L120.876 221.921L121.546 228.05L119.716 228.405L119.046 222.278L117.175 222.64L118.037 230.523L123.608 229.44Z" fill="#1D1D1D"/>
</g>
<g clip-path="url(#clip12_241_3048)">
<path d="M76.838 240.467C78.0659 241.183 79.7238 240.821 80.5348 239.663L83.6116 235.27L73.3394 229.358C72.1144 228.643 70.4569 229.007 69.6459 230.165L66.5698 234.557L76.838 240.467ZM71.2758 231.113C71.4933 230.803 71.9345 230.706 72.2622 230.896L80.9041 235.858L78.9053 238.712C78.6871 239.023 78.2466 239.119 77.9167 238.927L69.277 233.967L71.2758 231.113Z" fill="#1D1D1D"/>
<path d="M84.8895 245.162L89.4388 238.666L87.7925 237.706L84.2556 242.756L82.6454 241.817L86.1815 236.768L84.536 235.807L79.9867 242.302L84.8895 245.162Z" fill="#1D1D1D"/>
</g>
<g clip-path="url(#clip13_241_3048)">
<path d="M65.0896 213.892C66.3175 214.608 67.9754 214.246 68.7864 213.088L71.8632 208.695L61.591 202.783C60.366 202.068 58.7085 202.431 57.8975 203.589L54.8214 207.981L65.0896 213.892ZM59.5274 204.538C59.7449 204.227 60.1861 204.13 60.5138 204.321L69.1557 209.283L67.1569 212.137C66.9387 212.448 66.4982 212.544 66.1683 212.352L57.5286 207.392L59.5274 204.538Z" fill="#1D1D1D"/>
<path d="M73.141 218.586L77.6904 212.091L76.0441 211.131L72.5072 216.181L70.897 215.241L74.4331 210.193L72.7876 209.232L68.2383 215.727L73.141 218.586Z" fill="#1D1D1D"/>
</g>
<g clip-path="url(#clip14_241_3048)">
<path d="M22.8845 197.153C23.5694 198.398 25.1773 198.94 26.4683 198.365L31.3666 196.18L25.5986 185.826C24.9159 184.583 23.3074 184.042 22.0163 184.618L17.1193 186.802L22.8845 197.153ZM22.9263 186.27C23.2724 186.115 23.7007 186.259 23.8836 186.591L28.7424 195.291L25.5603 196.711C25.2129 196.865 24.7859 196.721 24.6018 196.387L19.7441 187.689L22.9263 186.27Z" fill="#1D1D1D"/>
<path d="M27.3745 205.32L34.6169 202.09L33.6988 200.42L28.0681 202.931L27.1705 201.297L32.8 198.787L31.8831 197.116L24.6407 200.346L27.3745 205.32Z" fill="#1D1D1D"/>
</g>
<g clip-path="url(#clip15_241_3048)">
<path d="M26.4795 168.319C27.1645 169.564 28.7723 170.107 30.0634 169.531L34.9617 167.346L29.1936 156.993C28.5109 155.749 26.9025 155.209 25.6114 155.784L20.7143 157.969L26.4795 168.319ZM26.5213 157.436C26.8675 157.282 27.2957 157.426 27.4787 157.758L32.3375 166.458L29.1553 167.877C28.808 168.032 28.3809 167.888 28.1969 167.553L23.3392 158.855L26.5213 157.436Z" fill="#1D1D1D"/>
<path d="M30.9695 176.486L38.2119 173.256L37.2938 171.586L31.6632 174.098L30.7655 172.464L36.395 169.953L35.4782 168.283L28.2358 171.513L30.9695 176.486Z" fill="#1D1D1D"/>
</g>
<g clip-path="url(#clip16_241_3048)">
<path d="M1.25636 137.322C1.34306 138.741 2.56448 139.919 3.97778 139.95L9.33984 140.07L8.55315 128.244C8.46772 126.829 7.24494 125.652 5.83163 125.62L0.470904 125.501L1.25636 137.322ZM5.94788 127.503C6.3268 127.511 6.65235 127.824 6.67583 128.203L7.34763 138.145L3.86422 138.067C3.48397 138.059 3.15975 137.745 3.13633 137.364L2.46447 127.425L5.94788 127.503Z" fill="#1D1D1D"/>
<path d="M1.82277 146.625L9.75085 146.802L9.63504 144.9L3.47127 144.763L3.35854 142.902L9.52098 143.039L9.4065 141.137L1.47843 140.96L1.82277 146.625Z" fill="#1D1D1D"/>
</g>
<g clip-path="url(#clip17_241_3048)">
<path d="M16.8356 112.795C16.9223 114.214 18.1437 115.392 19.557 115.423L24.9191 115.543L24.1324 103.717C24.0469 102.301 22.8242 101.125 21.4109 101.093L16.0501 100.973L16.8356 112.795ZM21.5271 102.975C21.906 102.984 22.2316 103.297 22.2551 103.675L22.9269 113.618L19.4434 113.54C19.0632 113.531 18.739 113.218 18.7156 112.837L18.0437 102.898L21.5271 102.975Z" fill="#1D1D1D"/>
<path d="M17.402 122.098L25.3301 122.275L25.2143 120.373L19.0505 120.235L18.9378 118.375L25.1002 118.512L24.9857 116.61L17.0576 116.433L17.402 122.098Z" fill="#1D1D1D"/>
</g>
<g clip-path="url(#clip18_241_3048)">
<path d="M12.6368 74.6967C12.0965 76.0112 12.6822 77.6037 13.9404 78.2482L18.714 80.6935L23.1611 69.7075C23.7014 68.3959 23.1139 66.8039 21.8557 66.1594L17.0833 63.7148L12.6368 74.6967ZM21.1398 67.904C21.4771 68.0768 21.6336 68.5007 21.4898 68.8514L17.7604 78.0922L14.6593 76.5037C14.3207 76.3303 14.1655 75.9071 14.3105 75.554L18.0387 66.3155L21.1398 67.904Z" fill="#1D1D1D"/>
<path d="M9.09124 83.316L16.1492 86.9313L16.8741 85.169L11.3869 82.3582L12.0966 80.6343L17.5827 83.4445L18.3088 81.6828L11.2509 78.0674L9.09124 83.316Z" fill="#1D1D1D"/>
</g>
<g clip-path="url(#clip19_241_3048)">
<path d="M37.3498 59.4142C36.8094 60.7287 37.3952 62.3213 38.6534 62.9658L43.4269 65.411L47.874 54.425C48.4144 53.1134 47.8268 51.5215 46.5686 50.877L41.7962 48.4323L37.3498 59.4142ZM45.8528 52.6216C46.1901 52.7944 46.3465 53.2182 46.2028 53.5689L42.4733 62.8097L39.3722 61.2212C39.0337 61.0478 38.8784 60.6246 39.0234 60.2715L42.7517 51.0331L45.8528 52.6216Z" fill="#1D1D1D"/>
<path d="M33.8042 68.0335L40.8621 71.6489L41.5871 69.8865L36.0998 67.0757L36.8095 65.3518L42.2956 68.1621L43.0218 66.4003L35.9638 62.7849L33.8042 68.0335Z" fill="#1D1D1D"/>
</g>
<g clip-path="url(#clip20_241_3048)">
<path d="M55.7296 22.1861C54.5673 23.0041 54.2053 24.6619 54.9199 25.8817L57.6309 30.5095L67.286 23.6357C68.4466 22.8202 68.8068 21.1619 68.0922 19.9421L65.3819 15.3155L55.7296 22.1861ZM66.5509 21.0285C66.7424 21.3556 66.6466 21.797 66.3368 22.0155L58.2249 27.8033L56.4637 24.7969C56.2715 24.4688 56.368 24.0284 56.6801 23.8086L64.7897 18.0222L66.5509 21.0285Z" fill="#1D1D1D"/>
<path d="M48.1069 27.5488L52.1153 34.3912L53.6739 33.2947L50.5575 27.975L52.0825 26.9028L55.1982 32.2214L56.7575 31.126L52.7491 24.2837L48.1069 27.5488Z" fill="#1D1D1D"/>
</g>
<g clip-path="url(#clip21_241_3048)">
<path d="M84.7833 22.5821C83.6211 23.4001 83.2591 25.0579 83.9736 26.2777L86.6847 30.9055L96.3398 24.0317C97.5004 23.2162 97.8606 21.5579 97.146 20.3381L94.4357 15.7115L84.7833 22.5821ZM95.6046 21.4245C95.7962 21.7516 95.7003 22.193 95.3906 22.4115L87.2787 28.1993L85.5175 25.1929C85.3253 24.8648 85.4218 24.4244 85.7338 24.2046L93.8434 18.4181L95.6046 21.4245Z" fill="#1D1D1D"/>
<path d="M77.1606 27.9448L81.169 34.7872L82.7276 33.6907L79.6113 28.371L81.1363 27.2988L84.252 32.6174L85.8113 31.522L81.8029 24.6796L77.1606 27.9448Z" fill="#1D1D1D"/>
</g>
<g clip-path="url(#clip22_241_3048)">
<path d="M113.237 1.75111C111.816 1.7616 110.574 2.9181 110.467 4.32768L110.06 9.67559L121.911 9.52424C123.329 9.51487 124.57 8.35695 124.677 6.94737L125.084 1.60079L113.237 1.75111ZM122.791 6.96252C122.763 7.34044 122.432 7.64872 122.053 7.65188L112.089 7.78951L112.354 4.31529C112.383 3.93604 112.713 3.62908 113.094 3.62613L123.056 3.48829L122.791 6.96252Z" fill="#1D1D1D"/>
<path d="M103.917 1.81781L103.315 9.72497L105.221 9.71135L105.689 3.56383L107.553 3.55105L107.085 9.69724L108.991 9.68494L109.593 1.77777L103.917 1.81781Z" fill="#1D1D1D"/>
</g>
<g clip-path="url(#clip23_241_3048)">
<path d="M136.893 18.6234C135.472 18.6339 134.23 19.7904 134.123 21.2L133.716 26.5479L145.567 26.3966C146.985 26.3872 148.226 25.2293 148.333 23.8197L148.74 18.4731L136.893 18.6234ZM146.447 23.8348C146.419 24.2128 146.088 24.521 145.709 24.5242L135.745 24.6618L136.01 21.1876C136.039 20.8084 136.369 20.5014 136.751 20.4984L146.712 20.3606L146.447 23.8348Z" fill="#1D1D1D"/>
<path d="M127.574 18.6901L126.971 26.5973L128.877 26.5837L129.345 20.4361L131.209 20.4234L130.741 26.5696L132.647 26.5573L133.249 18.6501L127.574 18.6901Z" fill="#1D1D1D"/>
</g>
<defs>
<clipPath id="clip0_241_3048">
<rect width="21.0905" height="9.75331" fill="white" transform="translate(171.942 7.3894) rotate(32.5471)"/>
</clipPath>
<clipPath id="clip1_241_3048">
<rect width="21.0905" height="9.75331" fill="white" transform="translate(184.82 33.4421) rotate(32.5471)"/>
</clipPath>
<clipPath id="clip2_241_3048">
<rect width="21.0905" height="9.75331" fill="white" transform="translate(225.822 45.7578) rotate(65.9634)"/>
</clipPath>
<clipPath id="clip3_241_3048">
<rect width="21.0905" height="9.75331" fill="white" transform="translate(222.227 74.5908) rotate(65.9634)"/>
</clipPath>
<clipPath id="clip4_241_3048">
<rect width="21.0905" height="9.75331" fill="white" transform="translate(252 101.184) rotate(91.2797)"/>
</clipPath>
<clipPath id="clip5_241_3048">
<rect width="21.0905" height="9.75331" fill="white" transform="translate(236.421 125.711) rotate(91.2797)"/>
</clipPath>
<clipPath id="clip6_241_3048">
<rect width="21.0905" height="9.75331" fill="white" transform="translate(244.531 165.283) rotate(117.124)"/>
</clipPath>
<clipPath id="clip7_241_3048">
<rect width="21.0905" height="9.75331" fill="white" transform="translate(219.819 180.566) rotate(117.124)"/>
</clipPath>
<clipPath id="clip8_241_3048">
<rect width="21.0905" height="9.75331" fill="white" transform="translate(208.866 219.514) rotate(146.266)"/>
</clipPath>
<clipPath id="clip9_241_3048">
<rect width="21.0905" height="9.75331" fill="white" transform="translate(179.839 220.827) rotate(146.266)"/>
</clipPath>
<clipPath id="clip10_241_3048">
<rect width="21.0905" height="9.75331" fill="white" transform="translate(150.162 243.487) rotate(173.757)"/>
</clipPath>
<clipPath id="clip11_241_3048">
<rect width="21.0905" height="9.75331" fill="white" transform="translate(123.807 231.253) rotate(173.757)"/>
</clipPath>
<clipPath id="clip12_241_3048">
<rect width="21.0905" height="9.75331" fill="white" transform="translate(83.8435 246.655) rotate(-144.993)"/>
</clipPath>
<clipPath id="clip13_241_3048">
<rect width="21.0905" height="9.75331" fill="white" transform="translate(72.0951 220.08) rotate(-144.993)"/>
</clipPath>
<clipPath id="clip14_241_3048">
<rect width="21.0905" height="9.75331" fill="white" transform="translate(25.7093 206.062) rotate(-114.037)"/>
</clipPath>
<clipPath id="clip15_241_3048">
<rect width="21.0905" height="9.75331" fill="white" transform="translate(29.3043 177.229) rotate(-114.037)"/>
</clipPath>
<clipPath id="clip16_241_3048">
<rect width="21.0905" height="9.75331" fill="white" transform="translate(-6.10352e-05 146.584) rotate(-88.7203)"/>
</clipPath>
<clipPath id="clip17_241_3048">
<rect width="21.0905" height="9.75331" fill="white" transform="translate(15.5792 122.057) rotate(-88.7203)"/>
</clipPath>
<clipPath id="clip18_241_3048">
<rect width="21.0905" height="9.75331" fill="white" transform="translate(7.46851 82.4846) rotate(-62.8764)"/>
</clipPath>
<clipPath id="clip19_241_3048">
<rect width="21.0905" height="9.75331" fill="white" transform="translate(32.1815 67.2021) rotate(-62.8764)"/>
</clipPath>
<clipPath id="clip20_241_3048">
<rect width="21.0905" height="9.75331" fill="white" transform="translate(47.1852 25.9756) rotate(-30.3626)"/>
</clipPath>
<clipPath id="clip21_241_3048">
<rect width="21.0905" height="9.75331" fill="white" transform="translate(76.239 26.3716) rotate(-30.3626)"/>
</clipPath>
<clipPath id="clip22_241_3048">
<rect width="21.0905" height="9.75331" fill="white" transform="translate(104.056 -0.000244141) rotate(4.35392)"/>
</clipPath>
<clipPath id="clip23_241_3048">
<rect width="21.0905" height="9.75331" fill="white" transform="translate(127.712 16.8721) rotate(4.35392)"/>
</clipPath>
</defs>
</svg>
