<svg width="10" height="20" viewBox="0 0 10 20" fill="none" xmlns="http://www.w3.org/2000/svg">
<g clip-path="url(#clip0_806_2611)">
<path d="M0.990979 11.147C1.10276 12.4846 2.28089 13.571 3.61601 13.571L8.68143 13.571L7.6892 2.42158C7.57867 1.08646 6.39929 0.00128376 5.06417 0.00128383L-7.28686e-07 0.00128411L0.990979 11.147ZM5.21363 1.776C5.57159 1.776 5.88559 2.06488 5.91573 2.42159L6.75976 11.7951L3.46906 11.7951C3.10984 11.7951 2.7971 11.5062 2.76696 11.147L1.92293 1.776L5.21363 1.776Z" fill="#1D1D1D"/>
<path d="M1.72197 19.9187L9.21146 19.9187L9.062 18.1251L3.23921 18.1251L3.09351 16.3705L8.91505 16.3705L8.76684 14.577L1.27734 14.577L1.72197 19.9187Z" fill="#1D1D1D"/>
</g>
<defs>
<clipPath id="clip0_806_2611">
<rect width="19.9188" height="9.21146" fill="white" transform="translate(0 19.9187) rotate(-90)"/>
</clipPath>
</defs>
</svg>
