<svg width="808" height="387" viewBox="0 0 808 387" fill="none" xmlns="http://www.w3.org/2000/svg">
<g clip-path="url(#clip0_198_5103)">
<path d="M39.8601 6.04957C34.6011 6.15522 30.0603 10.4934 29.7294 15.7148L28.474 35.5249L72.3236 34.4076C77.5724 34.3063 82.1086 29.9629 82.4395 24.7414L83.6946 4.93633L39.8601 6.04957ZM75.4619 24.8861C75.3731 26.286 74.1656 27.4424 72.7631 27.4719L35.8958 28.4497L36.7114 15.5803C36.8004 14.1755 38.0077 13.024 39.4199 12.9951L76.2774 12.0167L75.4619 24.8861Z" fill="#F0EEEE"/>
<path d="M5.37366 6.73445L3.51749 36.0246L10.5688 35.8846L12.0119 13.1126L18.9101 12.9777L17.4673 35.7447L24.5183 35.6096L26.3745 6.31949L5.37366 6.73445Z" fill="#F0EEEE"/>
</g>
<g clip-path="url(#clip1_198_5103)">
<path d="M128.197 67.376C122.938 67.4816 118.397 71.8198 118.066 77.0413L116.811 96.8513L160.66 95.7341C165.909 95.6327 170.445 91.2893 170.776 86.0679L172.031 66.2627L128.197 67.376ZM163.798 86.2125C163.71 87.6125 162.502 88.7689 161.1 88.7983L124.232 89.7761L125.048 76.9067C125.137 75.5019 126.344 74.3504 127.757 74.3215L164.614 73.3431L163.798 86.2125Z" fill="#F0EEEE"/>
<path d="M93.7102 68.0609L91.8541 97.351L98.9054 97.211L100.349 74.439L107.247 74.3041L105.804 97.0712L112.855 96.936L114.711 67.6459L93.7102 68.0609Z" fill="#F0EEEE"/>
</g>
<g clip-path="url(#clip2_198_5103)">
<path d="M267.497 20.4753C262.238 20.581 257.697 24.9192 257.366 30.1406L256.111 49.9506L299.961 48.8334C305.209 48.7321 309.746 44.3887 310.077 39.1672L311.332 19.3621L267.497 20.4753ZM303.099 39.3119C303.01 40.7118 301.803 41.8682 300.4 41.8977L263.533 42.8755L264.348 30.0061C264.437 28.6012 265.645 27.4498 267.057 27.4209L303.915 26.4425L303.099 39.3119Z" fill="#F0EEEE"/>
<path d="M233.011 21.1602L231.155 50.4504L238.206 50.3104L239.649 27.5384L246.547 27.4035L245.104 50.1705L252.155 50.0354L254.012 20.7453L233.011 21.1602Z" fill="#F0EEEE"/>
</g>
<g clip-path="url(#clip3_198_5103)">
<path d="M355.834 81.8018C350.575 81.9074 346.034 86.2456 345.703 91.467L344.448 111.277L388.297 110.16C393.546 110.058 398.082 105.715 398.413 100.494L399.668 80.6885L355.834 81.8018ZM391.435 100.638C391.347 102.038 390.139 103.195 388.737 103.224L351.869 104.202L352.685 91.3325C352.774 89.9277 353.981 88.7762 355.394 88.7473L392.251 87.7689L391.435 100.638Z" fill="#F0EEEE"/>
<path d="M321.347 82.4866L319.491 111.777L326.542 111.637L327.986 88.8648L334.884 88.7299L333.441 111.497L340.492 111.362L342.348 82.0717L321.347 82.4866Z" fill="#F0EEEE"/>
</g>
<g clip-path="url(#clip4_198_5103)">
<path d="M535.304 54.3676C530.449 52.3429 524.544 54.4809 522.135 59.1252L512.996 76.7457L553.57 93.4111C558.414 95.4355 564.317 93.2909 566.726 88.6466L575.863 71.0305L535.304 54.3676ZM560.283 85.9644C559.637 87.2096 558.065 87.7807 556.77 87.2419L522.641 73.2654L528.578 61.8184C529.226 60.5689 530.795 60.0022 532.099 60.5455L566.22 74.5174L560.283 85.9644Z" fill="#F0EEEE"/>
<path d="M503.471 41.0833L489.958 67.1361L496.467 69.8523L506.973 49.5972L513.339 52.2563L502.835 72.507L509.342 75.2275L522.855 49.1747L503.471 41.0833Z" fill="#F0EEEE"/>
</g>
<g clip-path="url(#clip5_198_5103)">
<path d="M591.398 146.116C586.543 144.091 580.638 146.229 578.229 150.874L569.089 168.494L609.664 185.159C614.508 187.184 620.411 185.039 622.82 180.395L631.957 162.779L591.398 146.116ZM616.376 177.713C615.731 178.958 614.159 179.529 612.864 178.99L578.735 165.014L584.672 153.567C585.32 152.317 586.889 151.75 588.193 152.294L622.314 166.266L616.376 177.713Z" fill="#F0EEEE"/>
<path d="M559.565 132.832L546.052 158.884L552.561 161.601L563.067 141.346L569.433 144.005L558.929 164.255L565.436 166.976L578.949 140.923L559.565 132.832Z" fill="#F0EEEE"/>
</g>
<g clip-path="url(#clip6_198_5103)">
<path d="M732.39 224.918C729.231 220.713 723.057 219.563 718.627 222.346L701.818 232.903L728.349 267.834C731.498 272.034 737.674 273.177 742.104 270.394L758.909 259.839L732.39 224.918ZM737.909 264.816C736.721 265.562 735.077 265.258 734.234 264.137L711.896 234.791L722.816 227.933C724.008 227.184 725.648 227.491 726.497 228.62L748.829 257.958L737.909 264.816Z" fill="#F0EEEE"/>
<path d="M711.682 197.333L686.829 212.943L691.063 218.583L710.385 206.447L714.526 211.966L695.207 224.1L699.437 229.743L724.291 214.133L711.682 197.333Z" fill="#F0EEEE"/>
</g>
<g clip-path="url(#clip7_198_5103)">
<path d="M734.246 332.44C731.087 328.234 724.913 327.084 720.483 329.867L703.673 340.424L730.204 375.355C733.354 379.555 739.529 380.698 743.96 377.915L760.765 367.36L734.246 332.44ZM739.765 372.338C738.577 373.084 736.933 372.779 736.089 371.659L713.752 342.313L724.672 335.454C725.864 334.705 727.504 335.012 728.353 336.141L750.685 365.479L739.765 372.338Z" fill="#F0EEEE"/>
<path d="M713.537 304.854L688.684 320.464L692.918 326.105L712.241 313.969L716.381 319.487L697.063 331.621L701.293 337.264L726.146 321.654L713.537 304.854Z" fill="#F0EEEE"/>
</g>
<defs>
<clipPath id="clip0_198_5103">
<rect width="78.0554" height="36.0967" fill="white" transform="translate(5.80043) rotate(3.6261)"/>
</clipPath>
<clipPath id="clip1_198_5103">
<rect width="78.0554" height="36.0967" fill="white" transform="translate(94.137 61.3264) rotate(3.6261)"/>
</clipPath>
<clipPath id="clip2_198_5103">
<rect width="78.0554" height="36.0967" fill="white" transform="translate(233.438 14.4258) rotate(3.6261)"/>
</clipPath>
<clipPath id="clip3_198_5103">
<rect width="78.0554" height="36.0967" fill="white" transform="translate(321.774 75.7522) rotate(3.6261)"/>
</clipPath>
<clipPath id="clip4_198_5103">
<rect width="78.0554" height="36.0967" fill="white" transform="translate(506.578 35.0933) rotate(27.4152)"/>
</clipPath>
<clipPath id="clip5_198_5103">
<rect width="78.0554" height="36.0967" fill="white" transform="translate(562.672 126.842) rotate(27.4152)"/>
</clipPath>
<clipPath id="clip6_198_5103">
<rect width="78.0554" height="36.0967" fill="white" transform="translate(717.396 193.744) rotate(57.8676)"/>
</clipPath>
<clipPath id="clip7_198_5103">
<rect width="78.0554" height="36.0967" fill="white" transform="translate(719.252 301.265) rotate(57.8676)"/>
</clipPath>
</defs>
</svg>
