<svg width="144" height="47" viewBox="0 0 144 47" fill="none" xmlns="http://www.w3.org/2000/svg">
<path d="M83.1165 10.6081V0L60.8454 1.97185C58.1588 2.1965 55.9995 4.54275 55.9995 7.18853V17.7966L78.2957 15.8247C80.9321 15.6001 83.1165 13.2539 83.1165 10.6081ZM59.5397 6.88901C59.5397 6.16516 60.1172 5.54116 60.8454 5.49124L79.5762 3.81891V10.9076C79.5762 11.6314 78.9987 12.2554 78.2957 12.3054L59.5648 13.9777V6.88901H59.5397Z" fill="#009D92"/>
<path d="M38.2478 3.81885L29.3846 4.61757C26.7231 4.84221 24.5387 7.18847 24.5387 9.83425V23.4875L22.7057 23.6372V30.3016L26.246 30.0021V26.6574L36.5154 25.7339V29.1035L40.0556 28.804V22.1147L38.2227 22.2644V3.81885H38.2478ZM34.7076 22.5889L28.1041 23.2129V9.55969C28.1041 8.83584 28.6815 8.21184 29.4097 8.16192L34.7076 7.66271V22.5889Z" fill="#009D92"/>
<path d="M50.4003 29.9023L46.8349 29.5279V21.5406L43.2946 21.8402V47L46.8349 46.7005V32.9474L50.4003 33.3218V46.401L53.9657 46.1014V20.9666L50.4003 21.2661V29.9023Z" fill="#009D92"/>
<path d="M139.435 13.853L138.029 27.3564L137.401 27.4064C136.597 27.4812 136.171 26.7574 136.095 26.0336L134.212 14.2773L130.622 14.5768L132.555 26.6825C132.831 29.3533 134.865 31.1254 137.401 30.9257H137.552C137.526 33.7462 136.246 37.5651 134.689 39.4122L138.832 39.0628C140.665 35.9427 141.192 30.8758 141.192 30.8758L143 13.5535L139.435 13.853Z" fill="#009D92"/>
<path d="M126.654 14.9262C125.223 15.051 122.185 16.0495 121.482 19.7436C120.779 16.1743 117.741 15.6501 116.31 15.7749L113.849 15.9746V41.1344L117.389 40.8349V19.469C118.946 19.3442 119.699 24.5858 119.699 27.581V40.6602L123.24 40.3607V27.2815C123.24 24.2863 123.993 18.9199 125.55 18.7951V40.161L129.09 39.8615V14.7266L126.654 14.9262Z" fill="#009D92"/>
<path d="M101.621 21.7902V42.1328C103.404 41.983 105.187 41.8332 106.969 41.6835C109.656 41.4588 111.815 39.1375 111.815 36.4668V30.9756L108.275 31.2751V36.7913C108.275 37.5151 107.698 38.1391 106.969 38.1891L105.162 38.3388V30.3765C105.162 29.6776 105.739 29.0536 106.467 28.9788L110.058 28.6792V25.1599L106.467 25.4594C106.015 25.4843 105.589 25.6091 105.162 25.7339V21.4907C105.162 20.7669 105.739 20.1429 106.467 20.0929L108.275 19.9432V23.3627L111.815 23.0632V16.1243L106.467 16.5736C103.806 16.7982 101.621 19.1444 101.621 21.7902Z" fill="#009D92"/>
<path d="M96.0223 26.1083L92.4569 25.7339V17.7716L88.8915 18.0462V43.2061L92.4569 42.9065V29.1535L96.0223 29.5279V42.607L99.5625 42.3075V17.1726L96.0223 17.4721V26.1083Z" fill="#009D92"/>
<path d="M86.8828 18.2209L83.2672 18.5205L82.4135 29.0287C82.2879 30.5014 81.5096 30.751 81.0827 30.7759L79.6013 30.9007V18.82L76.0611 19.1195V31.2002L74.5797 31.325C74.0022 31.375 73.3745 31.0754 73.2489 29.8274L72.3701 19.419L68.7545 19.7186L69.7589 30.8009C69.8593 32.0489 70.261 32.9474 70.7632 33.5465C70.2108 34.3452 69.8342 35.2937 69.7086 36.342L68.8298 44.8534L72.3952 44.5539L73.2238 36.4169C73.2991 35.718 73.7009 34.9692 74.429 34.8444H74.5043L75.9857 34.7196V44.2544L79.526 43.9549V34.4451L81.0074 34.3203H81.0827C81.8109 34.3203 82.2377 34.9942 82.313 35.6931L83.1667 43.6803L86.7321 43.3808L85.8282 35.0441C85.7278 33.9958 85.3261 33.0722 84.7486 32.3734C85.2758 31.6745 85.6776 30.726 85.8031 29.478L86.8828 18.2209Z" fill="#009D92"/>
<path d="M63.1804 27.1068L59.5648 32.0739V20.4924L56.0245 20.7919V45.9268L59.5648 45.6522V36.9411L63.1804 31.974V45.3277L66.7458 45.0282V19.8933L63.1804 20.1679V27.1068Z" fill="#009D92"/>
<path d="M43.2946 18.8449L46.8851 18.5454V6.41478L50.3752 6.14022V18.2459L53.9657 17.9464V2.521L43.2946 3.3946V18.8449Z" fill="#009D92"/>
<path d="M17.8347 12.5799L14.2442 17.497V12.5799L10.7039 12.8794V31.325L14.2442 31.0254V22.6638L17.8347 17.7217V30.7259L21.375 30.4264V5.2915L17.8347 5.59103V12.5799Z" fill="#009D92"/>
<path d="M10.7039 11.0574L14.2442 10.7579V5.86572L4 6.71437V31.8742L7.54028 31.5747V9.95919L10.7039 9.68463V11.0574Z" fill="#009D92"/>
</svg>
