<svg width="73" height="80" viewBox="0 0 73 80" fill="none" xmlns="http://www.w3.org/2000/svg">
<path d="M4.41778 26.1874L45.7299 28.5481L35.5002 0.613281C25.664 8.48225 5.67681 24.6136 4.41778 26.1874Z" fill="#C3DEF0"/>
<path d="M35.5002 0.613281L45.7299 28.5481C47.3036 28.5481 63.9596 24.8759 72.0909 23.0398L35.5002 0.613281Z" fill="#B6D5DA"/>
<path d="M72.0909 23.0398C63.9596 24.8759 47.3036 28.5481 45.7299 28.5481L64.6154 63.565L72.0909 23.0398Z" fill="#719EB3"/>
<path d="M45.7299 28.5481L22.123 65.9257L64.6154 63.565L45.7299 28.5481Z" fill="#527897"/>
<path d="M22.123 65.9257L35.5002 79.6964L64.6154 63.565L22.123 65.9257Z" fill="#536D7E"/>
<path d="M22.123 65.9257L0.0898438 58.0567L35.5002 79.6964L22.123 65.9257Z" fill="#9E9C98"/>
<path d="M22.123 65.9257L4.41778 26.1874L0.0898438 58.0567L22.123 65.9257Z" fill="#5284AA"/>
<path d="M4.41778 26.1874L22.123 65.9257L45.7299 28.5481L4.41778 26.1874Z" fill="#699DC4"/>
<path d="M4.41778 26.1874C5.67681 24.6136 25.664 8.48225 35.5002 0.613281L7.95881 18.7119L4.41778 26.1874Z" fill="#A5CBD7"/>
</svg>
